BritneySpears - Criminal.mp4
Format                                   : MPEG-4
Format profile                           : Base Media / Version 2
Codec ID                                 : mp42
File size                                : 128 MiB
Duration                                 : 5mn 21s
Overall bit rate                         : 3 330 Kbps
Encoded date                             : UTC 2011-10-17 20:06:07
Tagged date                              : UTC 2011-10-17 20:06:07
gsst                                     : 0
gstd                                     : 321945
gssd                                     : B9503B0A6HH1320169047244865
gshh                                     :

Video
ID                                       : 1
Format                                   : AVC
Format/Info                              : Advanced Video Codec
Format profile                           : High@L4.0
Format settings, CABAC                   : Yes
Format settings, ReFrames                : 1 frame
Format settings, GOP                     : M=1, N=24
Codec ID                                 : avc1
Codec ID/Info                            : Advanced Video Coding
Duration                                 : 5mn 21s
Bit rate                                 : 3 173 Kbps
Maximum bit rate                         : 8 902 Kbps
Width                                    : 1 920 pixels
Height                                   : 1 080 pixels
Display aspect ratio                     : 16:9
Frame rate mode                          : Variable
Frame rate                               : 23.976 fps
Minimum frame rate                       : 23.810 fps
Maximum frame rate                       : 24.390 fps
Color space                              : YUV
Chroma subsampling                       : 4:2:0
Bit depth                                : 8 bits
Scan type                                : Progressive
Bits/(Pixel*Frame)                       : 0.064
Stream size                              : 122 MiB (95%)
Tagged date                              : UTC 2011-10-17 20:06:12

Audio
ID                                       : 2
Format                                   : AAC
Format/Info                              : Advanced Audio Codec
Format profile                           : LC
Codec ID                                 : 40
Duration                                 : 5mn 21s
Bit rate mode                            : Variable
Bit rate                                 : 152 Kbps
Maximum bit rate                         : 197 Kbps
Channel(s)                               : 2 channels
Channel positions                        : Front: L R
Sampling rate                            : 44.1 KHz
Compression mode                         : Lossy
Stream size                              : 5.83 MiB (5%)
Title                                    : IsoMedia File Produced by Google, 5-11-2011
Encoded date                             : UTC 2011-10-17 20:06:11
Tagged date                              : UTC 2011-10-17 20:06:12

